<svg width="115" height="22" viewBox="0 0 115 22" fill="none" xmlns="http://www.w3.org/2000/svg">
<path d="M41.0634 4.23148V16.823C41.0634 17.0191 40.9054 17.1775 40.7098 17.1775H37.7683C37.6253 17.1775 37.4949 17.0921 37.4398 16.9588L37.1388 16.2372C36.053 17.1197 34.6763 17.6276 33.1341 17.6276C29.0766 17.6276 26.1777 14.6607 26.1777 10.5247C26.1777 6.38874 29.0791 3.47217 33.1341 3.47217C34.6963 3.47217 36.0931 3.99514 37.189 4.9028L37.5626 4.08314C37.6203 3.95742 37.7457 3.87445 37.8861 3.87445H40.7098C40.9054 3.87445 41.0634 4.03285 41.0634 4.22897M36.7175 10.5348C36.7175 8.80748 35.4587 7.51011 33.7484 7.51011C32.0382 7.51011 30.7793 8.80748 30.7793 10.5348C30.7793 12.2621 32.0382 13.5695 33.7484 13.5695C35.4587 13.5695 36.7175 12.2722 36.7175 10.5348Z" fill="#27549D"/>
<path d="M48.6241 17.6277C45.4795 17.6277 43.4082 16.1795 42.8941 13.9091C42.7687 13.3559 43.195 12.8304 43.7617 12.8304H46.4374C46.8061 12.8304 47.1371 13.0592 47.265 13.4062C47.4806 13.982 48.0374 14.251 48.7119 14.251C49.3865 14.251 50.0134 13.9091 50.0134 13.2201C50.0134 12.4533 49.0078 12.2345 47.7339 12.0233C45.6776 11.6889 42.9493 11.0654 42.9493 7.83958C42.9493 5.17192 45.2162 3.45215 48.6141 3.45215C51.503 3.45215 53.5217 4.76963 54.0809 6.83386C54.2338 7.39706 53.8025 7.94769 53.2232 7.94769H50.6754C50.3193 7.94769 49.9959 7.73398 49.8604 7.40461C49.6648 6.92689 49.1859 6.70312 48.5615 6.70312C47.8292 6.70312 47.3377 7.06769 47.3377 7.68369C47.3377 8.44049 48.3533 8.61649 49.6122 8.84278C51.7086 9.21489 54.4946 9.65238 54.4946 13.0265C54.4946 15.8073 52.155 17.6252 48.6292 17.6252L48.6241 17.6277Z" fill="#27549D"/>
<path d="M70.9927 10.5424C70.9927 14.686 68.0913 17.6453 64.0364 17.6453C62.8377 17.6453 61.7394 17.3285 60.8015 16.7628V21.6455C60.8015 21.8416 60.6435 22 60.4479 22H56.6387C56.4431 22 56.2852 21.8416 56.2852 21.6455V4.24415C56.2852 4.04803 56.4431 3.88963 56.6387 3.88963H59.1815C59.3119 3.88963 59.4323 3.96003 59.4925 4.07569L59.9639 4.94563C61.0548 4.00026 62.4591 3.45215 64.0364 3.45215C68.0939 3.45215 70.9927 6.39638 70.9927 10.5399M66.3936 10.5399C66.3936 8.79249 65.1348 7.49512 63.4245 7.49512C61.7143 7.49512 60.4554 8.79249 60.4554 10.5399C60.4554 12.2873 61.7143 13.5847 63.4245 13.5847C65.1348 13.5847 66.3936 12.2873 66.3936 10.5399Z" fill="#27549D"/>
<path d="M87.245 10.4166C87.245 10.5423 87.2425 10.668 87.235 10.7962C87.2099 11.2664 86.8187 11.631 86.3497 11.631H77.2995C77.5979 13.1571 78.5659 13.9466 80.0078 13.9466C80.9231 13.9466 81.708 13.6022 82.192 13.0138C82.3575 12.8127 82.6058 12.6995 82.8666 12.6995H85.6275C86.2921 12.6995 86.7309 13.4136 86.4149 13.9994C85.1937 16.2673 82.834 17.6326 80.0103 17.6326C75.8701 17.6326 72.8032 14.5978 72.8032 10.5347C72.8032 6.47166 75.845 3.45703 80.0103 3.45703C84.1756 3.45703 87.2475 6.51692 87.2475 10.4191L87.245 10.4166ZM77.3798 9.09155H82.7437C82.3425 7.76149 81.387 7.04492 80.0078 7.04492C78.6286 7.04492 77.7509 7.77155 77.3798 9.09155Z" fill="#27549D"/>
<path d="M96.3778 17.6275C92.1222 17.6275 89.0503 14.638 89.0503 10.5222C89.0503 6.40627 92.1072 3.47461 96.3903 3.47461C99.7055 3.47461 102.283 5.3377 103.166 8.23918C103.337 8.80238 102.903 9.37061 102.313 9.37061H99.5249C99.2014 9.37061 98.913 9.18958 98.75 8.90798C98.2711 8.08832 97.3884 7.58044 96.3753 7.58044C94.7703 7.58044 93.6268 8.8049 93.6268 10.5372C93.6268 12.2696 94.7829 13.5217 96.3753 13.5217C97.421 13.5217 98.2961 12.9761 98.7651 12.0785C98.9231 11.7793 99.2215 11.5807 99.56 11.5807H102.361C102.95 11.5807 103.384 12.1464 103.214 12.7121C102.318 15.6915 99.7055 17.6275 96.3727 17.6275H96.3778Z" fill="#27549D"/>
<path d="M115 14.0674V16.3026C115 16.7929 114.604 17.1927 114.112 17.1927H111.855C108.921 17.1927 107.138 15.395 107.138 12.4382V7.41966H105.065C104.869 7.41966 104.711 7.26126 104.711 7.06514V6.48937C104.711 6.39886 104.746 6.31086 104.806 6.24549L110.549 0.113143C110.617 0.0427428 110.709 0 110.807 0H111.238C111.434 0 111.592 0.1584 111.592 0.354514V3.8896H114.04C114.529 3.8896 114.927 4.28686 114.927 4.77966V6.5296C114.927 7.01988 114.531 7.41966 114.04 7.41966H111.707V11.6537C111.707 12.6066 112.282 13.1799 113.245 13.1799H114.112C114.601 13.1799 115 13.5771 115 14.0699" fill="#27549D"/>
<path d="M21.3881 9.23497L15.5351 0.797029C15.1916 0.296686 14.6223 0 14.018 0H1.84816C0.830044 0 0 0.832229 0 1.85303V20.1419C0 21.1627 0.830044 21.995 1.84816 21.995H14.013C14.6173 21.995 15.184 21.6983 15.5301 21.2005L21.3855 12.76C22.1178 11.704 22.1178 10.2885 21.3855 9.23246" fill="#27549D"/>
<path d="M3.01172 3.8016C3.01172 3.37668 3.35527 3.03223 3.77907 3.03223H5.73757C5.94822 3.03223 6.12125 3.20571 6.12125 3.41691V6.10971C6.12125 6.32091 5.94822 6.4944 5.73757 6.4944H3.77907C3.35527 6.4944 3.01172 6.14994 3.01172 5.72503V3.8016Z" fill="#F1FF24"/>
<path d="M3.01172 8.30477C3.01172 7.87986 3.35527 7.5354 3.77907 7.5354H5.73757C5.94822 7.5354 6.12125 7.70889 6.12125 7.92009V10.6129C6.12125 10.8266 5.94822 10.9976 5.73757 10.9976H3.77907C3.35527 10.9976 3.01172 10.6531 3.01172 10.2282V8.30477Z" fill="#F1FF24"/>
<path d="M10.6125 18.578C10.6125 18.7892 10.4395 18.9626 10.2288 18.9626H3.77907C3.35527 18.9626 3.01172 18.6182 3.01172 18.1933V16.9613C3.01172 16.5364 3.35527 16.1919 3.77907 16.1919H10.2263C10.4395 16.1919 10.61 16.3654 10.61 16.5766V18.578H10.6125Z" fill="#F1FF24"/>
<path d="M10.6125 14.7688C10.6125 14.98 10.4395 15.1535 10.2288 15.1535H3.77907C3.35527 15.1535 3.01172 14.8091 3.01172 14.3842V12.8077C3.01172 12.3828 3.35527 12.0383 3.77907 12.0383H10.2263C10.4395 12.0383 10.61 12.2118 10.61 12.423V14.7714L10.6125 14.7688Z" fill="#F1FF24"/>
<path d="M18.1428 12.3175L13.7594 18.6334C13.6165 18.8395 13.3808 18.9627 13.13 18.9627H12.0316C11.821 18.9627 11.6479 18.7893 11.6479 18.5781V7.92C11.6479 7.70628 11.4749 7.53531 11.2643 7.53531H10.9959C10.7828 7.53531 10.6123 7.7088 10.6123 7.92V10.2281C10.6123 10.653 10.2687 10.9975 9.84491 10.9975H7.92653C7.50273 10.9975 7.15918 10.653 7.15918 10.2281V3.41691C7.15918 3.2032 7.33221 3.03223 7.54286 3.03223H13.1325C13.3833 3.03223 13.619 3.15543 13.7619 3.3616L18.1428 9.67748C18.692 10.4695 18.692 11.5205 18.1428 12.315" fill="#F1FF24"/>
</svg>
